<?xml version="1.0" encoding="UTF-8" standalone="no"?>
<svg
   width="191.33345"
   height="60"
   viewBox="0 0 191.33345 60"
   fill="none"
   version="1.1"
   id="svg368"
   sodipodi:docname="logo.svg"
   inkscape:version="1.2 (dc2aeda, 2022-05-15)"
   xmlns:inkscape="http://www.inkscape.org/namespaces/inkscape"
   xmlns:sodipodi="http://sodipodi.sourceforge.net/DTD/sodipodi-0.dtd"
   xmlns="http://www.w3.org/2000/svg"
   xmlns:svg="http://www.w3.org/2000/svg">
  <defs
     id="defs372" />
  <sodipodi:namedview
     id="namedview370"
     pagecolor="#505050"
     bordercolor="#eeeeee"
     borderopacity="1"
     inkscape:showpageshadow="0"
     inkscape:pageopacity="0"
     inkscape:pagecheckerboard="0"
     inkscape:deskcolor="#505050"
     showgrid="false"
     inkscape:zoom="3.9130645"
     inkscape:cx="96.599481"
     inkscape:cy="6.0055233"
     inkscape:window-width="2560"
     inkscape:window-height="1387"
     inkscape:window-x="0"
     inkscape:window-y="25"
     inkscape:window-maximized="1"
     inkscape:current-layer="svg368" />
  <path
     fill-rule="evenodd"
     clip-rule="evenodd"
     d="M 102.88867,26.3314 C 99.378,35.724133 89.930667,38.498133 81.537333,38.375933 81.468,38.374333 81.400667,38.352133 81.342,38.3114 81.28267,38.27067 81.234,38.21293 81.2,38.143867 c -0.03333,-0.06907 -0.05067,-0.147 -0.05,-0.226067 0.0013,-0.07907 0.02,-0.156467 0.05467,-0.2246 1.158,-2.199067 2.376,-4.386133 3.654666,-6.5612 0.564667,-0.9558 0.946667,-2.005067 0.959334,-3.176467 0.06667,-9.2322 0.05667,-18.387733 -0.03133,-27.466637 -6.66e-4,-0.0650607 0.01,-0.12964933 0.03133,-0.18986533 0.02133,-0.0602153 0.05333,-0.11480934 0.094,-0.16048267 0.04,-0.04567267 0.08867,-0.08147773 0.141333,-0.10525373 0.05267,-0.023776 0.109333,-0.035028 0.166,-0.033077972 C 94.845333,0.18706467 103.26467,4.2402333 104.01067,15.343333 c 0.25066,3.772867 0.188,7.473934 -1.122,10.988067 z M 74.842,0.07208133 H 57.176933 c -0.159266,0 -0.288333,0.14800334 -0.288333,0.33057667 v 59.259609 c 0,0.182533 0.129067,0.330533 0.288333,0.330533 H 74.842 c 0.159333,0 0.288667,-0.148 0.288667,-0.330533 V 0.402658 c 0,-0.18257333 -0.129334,-0.33057667 -0.288667,-0.33057667 z M 17.997467,59.619133 V 41.078067 c 0,-0.929467 0.250733,-1.027667 0.752266,-0.294667 l 12.913534,18.835733 c 0.108666,0.158067 0.2508,0.234734 0.426266,0.229934 7.050267,-0.1006 13.95,-0.0886 20.699334,0.03593 0.2048,0.0048 0.334333,-0.04787 0.388666,-0.158067 0.04307,-0.09007 0.063,-0.192 0.05747,-0.293866 C 53.2294,59.3312 53.1986,59.233733 53.1462,59.152 45.795067,47.840533 38.535867,36.677533 31.368667,25.663067 c -0.116867,-0.177934 -0.1736,-0.398534 -0.1598,-0.621534 0.01387,-0.223066 0.09727,-0.433533 0.235,-0.593 2.223333,-2.577533 4.400666,-5.0904 6.532,-7.5386 1.713666,-1.9698 3.495666,-3.940533 5.294333,-5.929733 3.0704,-3.3955333 6.189267,-6.8446733 9.098667,-10.433818 0.01827,-0.0224867 0.03047,-0.0505973 0.035,-0.0808887 0.0046,-0.0302907 0.0013,-0.0614513 -0.0093,-0.089666 -0.01067,-0.0282147 -0.02827,-0.0522587 -0.05067,-0.0691933 -0.02233,-0.0169347 -0.04853,-0.0260227 -0.0754,-0.0261533 L 30.654,0.330786 c -0.04827,8e-6 -0.09607,0.010852 -0.1406,0.0318933 -0.04447,0.0210413 -0.08487,0.0518587 -0.118733,0.0906587 -0.0338,0.0388007 -0.06047,0.0848047 -0.0784,0.13532733 C 30.2984,0.639188 30.2896,0.69322 30.290467,0.7476 c 0.08773,7.7614 0.0982,15.5132 0.03133,23.2554 -0.0063,1.042067 -0.463933,1.839733 -1.0908,2.508067 -3.64,3.866333 -7.0544,7.706266 -10.243067,11.519933 -0.221466,0.268267 -0.4806,0.464733 -0.777333,0.589267 -0.02613,0.0102 -0.054,0.01313 -0.08133,0.0087 -0.0274,-0.0045 -0.0534,-0.01633 -0.076,-0.03453 -0.0226,-0.0182 -0.04113,-0.04227 -0.05413,-0.07027 -0.01293,-0.02793 -0.01993,-0.05907 -0.02047,-0.09073 l 0.02507,-37.58518667 c 0,-0.14294666 -0.0502,-0.28003933 -0.139533,-0.38111866 C 17.774867,0.36601533 17.653667,0.30922733 17.527333,0.30922733 L 0.29463067,0.337974 c -0.0781407,0 -0.15308334,0.0355833 -0.20833734,0.0989267 C 0.0310396,0.50024333 0,0.586158 0,0.67574 l 0.00627005,58.842793 c 0,0.287467 0.12537328,0.4312 0.37612195,0.4312 L 17.665267,60 c 0.08807,0 0.1726,-0.04013 0.234933,-0.111533 0.06227,-0.07147 0.09727,-0.168334 0.09727,-0.269334 z"
     fill="#000000"
     id="path334"
     style="stroke-width:0.666667" />
  <path
     d="M 125.82,48.344733 V 41.0558 h 3.16533 c 0.45867,0 0.85734,0.07987 1.198,0.239533 0.34,0.159667 0.60334,0.385267 0.79134,0.6768 0.18733,0.2916 0.28066,0.6352 0.28066,1.030867 v 0.124933 c 0,0.437334 -0.104,0.7914 -0.312,1.062134 -0.20866,0.270733 -0.46533,0.468533 -0.77066,0.593533 v 0.1874 c 0.27733,0.01387 0.49266,0.111067 0.64533,0.291533 0.15267,0.1736 0.22933,0.406134 0.22933,0.697667 v 2.384533 h -1.37466 v -2.186666 c 0,-0.1666 -0.0447,-0.302 -0.13534,-0.406134 C 129.454,45.6478 129.312,45.5958 129.11067,45.5958 h -1.916 v 2.748933 z m 1.37467,-3.998466 H 128.84 c 0.326,0 0.57933,-0.0868 0.76,-0.260334 0.18733,-0.180466 0.28133,-0.416533 0.28133,-0.708066 v -0.104134 c 0,-0.291533 -0.0907,-0.524133 -0.27133,-0.697666 -0.18,-0.180467 -0.43733,-0.270734 -0.77,-0.270734 h -1.64533 z"
     fill="#000000"
     id="path336"
     style="stroke-width:0.666667" />
  <path
     d="M 134.13467,48.344733 V 41.0558 h 4.686 v 1.249533 h -3.31134 v 1.738934 h 3.01934 V 45.2938 h -3.01934 v 1.8014 h 3.37334 v 1.249533 z"
     fill="#000000"
     id="path338"
     style="stroke-width:0.666667" />
  <path
     d="m 141.136,48.344733 1.916,-7.288933 h 2.39467 l 1.916,7.288933 h -1.416 l -0.396,-1.6036 H 142.948 l -0.396,1.6036 z m 2.13467,-2.873933 h 1.95733 l -0.88467,-3.550733 h -0.188 z"
     fill="#000000"
     id="path340"
     style="stroke-width:0.666667" />
  <path
     d="M 149.97067,48.344733 V 41.0558 h 1.37466 v 6.0394 h 3.332 v 1.249533 z"
     fill="#000000"
     id="path342"
     style="stroke-width:0.666667" />
  <path
     d="M 157.35,48.344733 V 41.0558 h 1.374 v 7.288933 z"
     fill="#000000"
     id="path344"
     style="stroke-width:0.666667" />
  <path
     d="M 161.62267,48.344733 V 46.5954 l 3.60266,-4.144267 v -0.1666 h -3.49866 V 41.0558 h 4.93533 v 1.749333 l -3.60267,4.144267 v 0.1666 h 3.624 v 1.228733 z"
     fill="#000000"
     id="path346"
     style="stroke-width:0.666667" />
  <path
     d="m 169.066,48.344733 1.916,-7.288933 h 2.39467 l 1.916,7.288933 h -1.416 l -0.396,-1.6036 h -2.60334 l -0.39533,1.6036 z m 2.13467,-2.873933 h 1.95733 l -0.88533,-3.550733 h -0.18734 z"
     fill="#000000"
     id="path348"
     style="stroke-width:0.666667" />
  <path
     d="m 180.60933,48.490533 c -0.90266,0 -1.61733,-0.249933 -2.14533,-0.749733 -0.52733,-0.506733 -0.79133,-1.228733 -0.79133,-2.165867 V 43.8256 c 0,-0.937133 0.264,-1.6556 0.79133,-2.1554 0.528,-0.5068 1.24267,-0.760133 2.14533,-0.760133 0.89534,0 1.586,0.2464 2.072,0.739266 0.49267,0.485934 0.73934,1.1558 0.73934,2.009667 v 0.06247 h -1.35334 v -0.104134 c 0,-0.4304 -0.122,-0.7844 -0.36466,-1.062066 -0.236,-0.277667 -0.60067,-0.416534 -1.09334,-0.416534 -0.486,0 -0.868,0.149267 -1.14533,0.447734 -0.278,0.298533 -0.41667,0.7046 -0.41667,1.218333 v 1.791 c 0,0.506733 0.13867,0.9128 0.41667,1.218267 0.27733,0.298466 0.65933,0.447733 1.14533,0.447733 0.49267,0 0.85734,-0.138867 1.09334,-0.416533 0.24266,-0.2846 0.36466,-0.6386 0.36466,-1.062067 v -0.1874 h 1.35334 v 0.145733 c 0,0.853867 -0.24667,1.5272 -0.73934,2.020067 -0.486,0.485933 -1.17666,0.728933 -2.072,0.728933 z"
     fill="#000000"
     id="path350"
     style="stroke-width:0.666667" />
  <path
     d="M 186.276,48.344733 V 41.0558 h 4.686 v 1.249533 h -3.31133 v 1.738934 H 190.67 V 45.2938 h -3.01933 v 1.8014 h 3.37333 v 1.249533 z"
     fill="#000000"
     id="path352"
     style="stroke-width:0.666667" />
  <path
     d="m 128.864,59.6182 c -0.562,0 -1.05867,-0.100667 -1.48867,-0.302 -0.43066,-0.201267 -0.76733,-0.4894 -1.01,-0.8642 -0.24333,-0.374867 -0.36466,-0.826067 -0.36466,-1.353667 V 56.8068 h 1.35333 v 0.291533 c 0,0.437334 0.13533,0.767067 0.40667,0.9892 0.27066,0.2152 0.63866,0.3228 1.10333,0.3228 0.472,0 0.82267,-0.09373 1.052,-0.281133 0.236,-0.187467 0.354,-0.426933 0.354,-0.718467 0,-0.201333 -0.0593,-0.364466 -0.17733,-0.4894 -0.11067,-0.125 -0.27734,-0.225666 -0.5,-0.302 -0.21467,-0.08327 -0.47867,-0.159666 -0.79134,-0.229066 L 128.562,56.3382 c -0.5,-0.111067 -0.93,-0.249933 -1.29133,-0.416533 -0.354,-0.173534 -0.628,-0.399134 -0.822,-0.6768 -0.188,-0.277667 -0.28134,-0.638667 -0.28134,-1.082934 0,-0.444266 0.104,-0.8226 0.312,-1.135 0.21534,-0.319266 0.514,-0.562266 0.896,-0.728866 0.38867,-0.173534 0.84334,-0.260334 1.364,-0.260334 0.52067,0 0.982,0.09027 1.38467,0.270734 0.40933,0.173533 0.72867,0.437333 0.958,0.7914 0.236,0.347066 0.354,0.7844 0.354,1.312 V 54.7242 h -1.35333 v -0.312333 c 0,-0.277667 -0.056,-0.4998 -0.16667,-0.6664 -0.10467,-0.1736 -0.25733,-0.298534 -0.45867,-0.374867 -0.20133,-0.08333 -0.44066,-0.125 -0.718,-0.125 -0.41666,0 -0.72533,0.07987 -0.92666,0.239533 -0.19467,0.152734 -0.292,0.3644 -0.292,0.635134 0,0.180533 0.0453,0.3332 0.13533,0.4582 0.0973,0.124933 0.24,0.229066 0.42733,0.312333 0.18734,0.08333 0.42667,0.1562 0.718,0.218667 l 0.24,0.05207 c 0.52067,0.111067 0.97134,0.2534 1.35334,0.426934 0.38866,0.173533 0.69066,0.402666 0.906,0.687266 0.21533,0.2846 0.32266,0.649067 0.32266,1.093334 0,0.444266 -0.11466,0.836466 -0.34333,1.1766 -0.222,0.3332 -0.54133,0.597 -0.958,0.7914 -0.41,0.1874 -0.89533,0.281133 -1.458,0.281133 z"
     fill="#000000"
     id="path354"
     style="stroke-width:0.666667" />
  <path
     d="m 135.83667,59.4724 v -6.039333 h -2.124 v -1.249534 h 5.62266 v 1.249534 h -2.124 V 59.4724 Z"
     fill="#000000"
     id="path356"
     style="stroke-width:0.666667" />
  <path
     d="m 142.00733,59.4724 v -7.288867 h 3.16534 c 0.458,0 0.85733,0.0798 1.19733,0.239467 0.34,0.159667 0.604,0.385267 0.79133,0.676867 0.18734,0.291533 0.28134,0.635133 0.28134,1.030866 v 0.124934 c 0,0.437333 -0.104,0.791333 -0.31267,1.062066 -0.208,0.270734 -0.46467,0.4686 -0.77067,0.593534 v 0.187466 c 0.278,0.01387 0.49334,0.111067 0.646,0.291534 0.15267,0.173533 0.22867,0.406066 0.22867,0.697666 V 59.4724 h -1.374 v -2.186667 c 0,-0.1666 -0.0453,-0.301933 -0.13533,-0.406066 -0.0833,-0.104134 -0.226,-0.1562 -0.42734,-0.1562 h -1.916 V 59.4724 Z m 1.374,-3.998467 h 1.64534 c 0.32666,0 0.58,-0.08673 0.76,-0.260333 0.188,-0.180467 0.28133,-0.416467 0.28133,-0.708067 v -0.104066 c 0,-0.2916 -0.09,-0.524134 -0.27067,-0.697667 -0.18066,-0.180533 -0.43733,-0.270733 -0.77066,-0.270733 h -1.64534 z M 143.642,51.5796 142.45467,50.225933 H 143.85 l 0.51067,0.687267 h 0.18733 l 0.51,-0.687267 h 1.39533 L 145.266,51.5796 Z"
     fill="#000000"
     id="path358"
     style="stroke-width:0.666667" />
  <path
     d="m 150.32133,59.4724 v -7.288867 h 4.686 v 1.249534 H 151.696 V 55.172 h 3.02 v 1.249467 h -3.02 v 1.8014 h 3.374 V 59.4724 Z"
     fill="#000000"
     id="path360"
     style="stroke-width:0.666667" />
  <path
     d="m 160.59267,59.6182 c -0.90267,0 -1.61734,-0.249933 -2.14534,-0.749733 C 157.92,58.361733 157.656,57.6398 157.656,56.702667 v -1.749334 c 0,-0.9372 0.264,-1.655666 0.79133,-2.155466 0.528,-0.506734 1.24267,-0.760134 2.14534,-0.760134 0.89533,0 1.586,0.246467 2.072,0.739334 0.49266,0.485933 0.73933,1.1558 0.73933,2.009666 v 0.06247 H 162.05 V 54.74507 c 0,-0.4304 -0.12133,-0.784467 -0.364,-1.062134 -0.236,-0.277666 -0.60067,-0.416466 -1.09333,-0.416466 -0.486,0 -0.868,0.1492 -1.14534,0.447733 -0.278,0.298467 -0.41666,0.7046 -0.41666,1.218267 v 1.791 c 0,0.506733 0.13866,0.912866 0.41666,1.218266 0.27734,0.298534 0.65934,0.447734 1.14534,0.447734 0.49266,0 0.85733,-0.1388 1.09333,-0.416467 0.24267,-0.2846 0.364,-0.638667 0.364,-1.062133 v -0.1874 h 1.354 v 0.1458 c 0,0.8538 -0.24667,1.5272 -0.73933,2.020066 -0.486,0.485934 -1.17667,0.728867 -2.072,0.728867 z"
     fill="#000000"
     id="path362"
     style="stroke-width:0.666667" />
  <path
     d="M 166.25933,59.4724 V 52.183533 H 167.634 V 55.1928 h 2.70733 v -3.009267 h 1.374 V 59.4724 h -1.374 V 56.442333 H 167.634 V 59.4724 Z"
     fill="#000000"
     id="path364"
     style="stroke-width:0.666667" />
  <path
     d="m 152.67933,22.8026 -9.754,9.736067 c -0.074,0.07347 -0.17333,0.114666 -0.27666,0.1146 l -4.714,0.0052 c -0.13667,0 -0.15667,-0.0486 -0.0607,-0.1458 L 155.986,14.4366 c 0.0847,-0.08453 0.0847,-0.1696 0,-0.255267 L 152.80467,11.0002 c -0.02,-0.01967 -0.0467,-0.03073 -0.0747,-0.03073 -0.028,0 -0.0547,0.01107 -0.0747,0.03073 -7.12133,7.103133 -14.27866,14.249 -21.47266,21.4378 -0.14134,0.140067 -0.312,0.2112 -0.51134,0.213533 -1.49733,0.01967 -3.03,0.01567 -4.59866,-0.01213 -0.0147,-1.33e-4 -0.0287,-0.0045 -0.0407,-0.01267 -0.012,-0.0081 -0.0213,-0.01967 -0.0267,-0.033 -0.005,-0.0134 -0.007,-0.02807 -0.004,-0.0422 0.003,-0.01413 0.01,-0.02707 0.0207,-0.0372 4.03733,-4.016866 8.00133,-7.959666 11.892,-11.8284 0.50267,-0.500066 1.2,-1.121733 1.202,-1.547133 0.009,-3.318867 0.006,-6.436867 -0.0107,-9.3540667 0,-0.1064666 0.0533,-0.1597333 0.16,-0.1597333 L 142.574,9.6198 c 0.0347,0 0.0687,0.013867 0.0933,0.038667 0.0247,0.024733 0.0387,0.058267 0.0387,0.093267 l -0.002,5.976734 c 0,0.01167 0.004,0.02307 0.01,0.03273 0.007,0.0097 0.016,0.0172 0.0267,0.02167 0.0107,0.0045 0.0227,0.0057 0.034,0.0034 0.0113,-0.0023 0.022,-0.0079 0.0307,-0.01613 L 158.5534,0.0417405 C 158.56667,0.02850507 158.58267,0.01800813 158.6,0.01084727 158.61667,0.00368642 158.63533,0 158.654,0 c 0.0193,0 0.0373,0.00368642 0.0547,0.01084727 0.0173,0.0071609 0.0333,0.0176578 0.0467,0.03088853 L 191.316,32.543867 c 0.008,0.0081 0.014,0.01827 0.016,0.0294 0.003,0.01113 0.001,0.02267 -0.003,0.03307 -0.004,0.01047 -0.0113,0.01933 -0.02,0.02553 -0.009,0.0062 -0.02,0.0094 -0.0313,0.0093 -1.41133,0.0162 -2.86267,0.02373 -4.354,0.0226 -0.40067,0 -0.71667,-0.114666 -0.946,-0.343866 -9.35333,-9.3824 -18.43933,-18.462067 -27.25933,-27.239067 -0.0467,-0.046307 -0.092,-0.046307 -0.13734,0 l -3.232,3.2332 c -0.0193,0.019867 -0.0307,0.046667 -0.0307,0.074667 0,0.028 0.0113,0.0548 0.0307,0.074667 l 24.092,24.049334 c 0.078,0.07753 0.062,0.117466 -0.0467,0.1198 -1.264,0.02773 -2.64134,0.0382 -4.13134,0.03127 -0.47133,-0.0018 -0.70066,0.06073 -1.07333,-0.310866 -5.08067,-5.077267 -10.22133,-10.209534 -15.42067,-15.396734 -0.0813,-0.07987 -0.16266,-0.07987 -0.244,0 l -3.186,3.1898 c -0.0167,0.0166 -0.026,0.03907 -0.026,0.06247 0,0.02347 0.009,0.04593 0.026,0.06253 L 167.64867,32.5578 c 0.007,0.0076 0.0113,0.01707 0.0133,0.02727 0.002,0.01013 6.7e-4,0.02067 -0.003,0.0302 -0.004,0.0095 -0.0107,0.01767 -0.0193,0.02347 -0.009,0.0059 -0.0187,0.0091 -0.0293,0.0093 l -4.802,0.01213 c -0.1,0 -0.19667,-0.03993 -0.268,-0.111133 L 152.78533,22.8026 c -0.007,-0.0071 -0.0153,-0.01273 -0.0247,-0.01653 -0.009,-0.0039 -0.0187,-0.0059 -0.0287,-0.0059 -0.01,0 -0.0193,0.002 -0.0287,0.0059 -0.009,0.0038 -0.0173,0.0095 -0.024,0.01653 z"
     fill="#0066cc"
     id="path366"
     style="stroke-width:0.666667" />
</svg>
